<?xml version="1.0" encoding="UTF-8"?><svg xmlns="http://www.w3.org/2000/svg" viewBox="0 0 3452 1124"><defs><style>.cls-1{fill:#006837;}.cls-2{fill:#e8d86b;}.cls-3{fill:#e8d96b;}.cls-4{fill:#663d18;}.cls-5{fill:#a35211;}.cls-6{fill:#39b54a;}.cls-7{fill:#3ab54b;}.cls-8{fill:#8cc63f;stroke:#329b3a;stroke-miterlimit:10;stroke-width:4px;}</style></defs><g id="Bounds"><path class="cls-1" d="m2172.5,1023.5c29-6,272-35,272-35l404-39,454,19,54-41s83,49,76,11-51-93-60-123-5-66-4-77,7-54,17-96c4.78-20.06,11.35-74.14,10-121-1.47-51.24-11.3-95.29-16-112-9-32-68-122-93-141s-105-49-136-55-85-1-116-2-72.94-3.78-72.94-3.78c0,0-1.06-23.22-.06-38.22s-11-18-21-28-23-6-25-17,10-19,4-24-27-6-35.04-9.21-79.96-3.79-93.96-6.79-17,5-30,3-31-7-53-8-41-13-55-11-41,9-54,7-71-17-82-17-22,15-53,30-21,12-46,12-22-12-53-13-45-14-57-10-29-1-49-16-14-20-26-30-34-24-46.05-16.65-41.95,15.65-45.95,36.65,3,39-13,65-64,48-82,65-87,66-95,70-3,7-38,2-77-20-104-32-104-30-137-41-105.5-46.5-135.5-59.5c-49.28-21.36-73-29-234-22S307.85,264.7,150.82,321.05c-26.32,9.45-47.32,48.45-52.32,63.45s-22,77-11,105,33,74,53,96,64.5,50.97,86,62c39,20,134,35,171,36s172,14,226,27,211,96,264,115,349,94,377,99,165,33,237,40,345,32,411,22,260,37,260,37Z"/></g><g id="Trees"><path class="cls-4" d="m3307.5,804.5c-19.29-13.15-94.5,17.5-147.5,18.5s-155.33,27.5-190.91,12.5-52.69-14.39-113.59-19c-59.5-4.5-84.5-3.5-134.5-9.5-51.6-6.19-175.5,6.5-215.5,9.5s-146,27-196,32-129-3-192-16-227.5-46.5-298.5-45.5-86.5,17.5-136.5,24.5-65.5-11.5-128.5-25.5-105-66-159-72-249,32-310,36-172-72-227-82-218.08,32.5-287.79,20.5-234.71-7-286.71-22-145-76-159-119-39-60-32-120-55-99-70-97-13.06,278.31-13.06,278.31c0,0,187.39,76.22,233.23,108.45s118.84,159.24,141.84,188.24,30.5,49.5,78.5,48.5,73-37,102-54,65-55,230-39,171.5-13.5,224.5-11.5,175,60,288,75,378,50,468,46,288-21,404-21,238-11,300-20,194-20,265-28,163,3,231,13,112-16,149-15,106-5,131-5,59,6,69-16,5-59-17-74Z"/></g><g id="Big_Trees"><circle class="cls-5" cx="2512" cy="265" r="45"/><circle class="cls-5" cx="1750" cy="298" r="24"/></g><g id="Fairway"><path class="cls-6" d="m447.5,465.5c-11.44-17.15-10-32-10-32,0,0,1-42,3-49s9-26,15-31,11-8,24-9,42.55,0,53,0,29,1,34,7,10,12,12,19,0,55.28,0,55.28c0,0-1.22,14.75.89,25.74s16.11,25.99,25.11,31.99,23,8,33,19,15,25,15,37-10.54,44.75-15,57c-4,11-8,19-19,23s-59.3,2-73.65,0-24.35-9-28.35-21-3-27-4-46-6-26-11-34-22-25-28-29-20-15-26-24Z"/><path class="cls-6" d="m143.5,476.5c-11.44-17.15-10-34-10-34,0,0,2.34-28.75,3-36,1-11,7.67-33.5,12-40,6-9,10.02-15.82,23-17,11-1,57.55-5,68-5s21.38,8.82,26.38,14.82,10,12,12,19-2.38,35.18-2.38,35.18c0,0-3.11,27.01-1,38s27,30,36,36,16.38,11.82,26.38,22.82,15,25,15,37-4.92,45.92-9.38,58.18c-4,11-13.3,16-25,16-14,0-21.08-4.5-37-6-13.25-1.25-27.48,2.91-34,2-14.35-2-29-7-33-19s-.62-19.18-1.62-38.18-6-26-11-34-22-25-28-29-23.38-11.82-29.38-20.82Z"/><path class="cls-6" d="m869.5,411.5c-20.77,4.33-24,7-30,14s-16,31-15,43,18,35,25,44,10,19,13,35,3,39,14,47,21,16,37,14,36-9,47-33,7-36,4-46-33-97-43-106-28-17-52-12Z"/><path class="cls-7" d="m1365,400c-38.77,6.56-52.5,7.5-62.5,18.5s-27,28-28,54,14,73,66,102,238,94,330,94,104-1,123-4,34.23,6,59.61,6,101.39-12,135.39-10,107,15,138,26,60,21,84,17,31-11,36-17,3-21,22-40,31-28,60-42,55-29,82-25,70,21,86,28,48,24,74,32,92,18,133,13,125-30,168-41,112-28,131-23,51,35,59,42,13,6,12,0-2-19,12-15,14-8,12-13-53-82-59-85-26-91-26-91c0,0-28-9-36-5s-25,12-41,12-40-9-50-14-21.15-16-32.58-19.5-35.42-6.5-40.42-4.5-22,10-38,10-152-32-201-33-113,8-157,4-85-12-109-14-31.73,2-49.37,0-38.73-7.03-71.68-17.01-84.95-27.99-107.95-28.99-60,16-80,26-48,36-64,41-80,5-103,8-34,3-41,4-23.8-2.09-32-3c-9-1-18,0-30,0s-35-1-47-1-35-8-50-7-48,11-56,11-44,6-59,7-29,6-37,6-46-11-61-13-21-1-53.5,4.5Z"/></g><g id="Green"><path class="cls-8" d="m3012.5,429.5c-10,8-25,17-28,36s0,27,5,36,53,45,64,56,37,56,44,65,29,40,55,42,37-12,45-19,30-43,33-53,10-54,8-65-24-55-37-64-37-24-68-36-59-16-73-15-38,9-48,17Z"/></g><g id="Bunkers"><path class="cls-3" d="m2353,624c-39.4,24.02-42.5,24.5-47.5,28.5s-12,20-12,25,1,10,6,15,20,9,25,6c4.29-2.57,3-11,10-15s13-3,22-2,13,4,22,3,21-6,22-11-3-15,2-21,12-3,18-4,12-5,15-11,3-12,3-17-10-14-14-16-13-5-19-4-26,9-30,11-2,0-22.5,12.5Z"/><path class="cls-2" d="m2910.5,331.5c-7.07,0-20,8-23,17s-4,24-2,30,9,17,18,24c9.54,7.42,13.67,9.71,22.33,9.85s22.67-2.85,30.67-7.85,11-8,17-10,19-5,29-11,20-13,22-20,4-22-4-30-20.21-14.2-29-12c-8,2-18,6-23,12s-11,11-17,12-14-5-21-8-12-6-20-6Z"/></g></svg>