<?xml version="1.0" encoding="UTF-8"?><svg xmlns="http://www.w3.org/2000/svg" viewBox="0 0 3296.14 1174"><defs><style>.cls-1{fill:#006837;}.cls-2{fill:#009245;}.cls-3{fill:#e8d96b;}.cls-4{fill:#a35211;}.cls-5{fill:#754c24;}.cls-6{fill:#39b54a;stroke:#009245;stroke-miterlimit:10;}</style></defs><g id="Bounds"><path class="cls-1" d="m53,528c-17.04,38.14-41,80-28,126s46,92,87,97,156,78,223,85,155-9,206-16,94-29,125-18,120,63,159,70,151-36,187-31,167.5,22.5,208.5,7.5,119-6,153-8,126-23,162-41,149-34,241-41,279,11,479,80,125,62,177,77,116,8,157,18,57,20,172,84,125,115,202,123,205.41,38,243.71,0,77.29-82,74.29-218,11-184-38-215-106-72-139-82-51,6-110-10-179-88-228-126-87-97-118-174-93-113-167-167-171-113-220-100-65,51-93,64-49,15-87,28-92,19-118,29-30,40-56,66-49,31-108,36-271-4-351,3-244,20-349,38-149,27-200,39-69-6-118-3-45,33-97,41-210,36-249,46-82,52-141,62-210-40-241.5,30.5Z"/></g><g id="Trees"><path class="cls-5" d="m881.5,753.5c-57.72,11.32-87,2-100,41s13,25.56,50,43.78,53.03,17.78,68.01,0-9.01-50.78,20.99-58.78,82,14,79-16-19-51-49-38-18,18-69,28Z"/><path class="cls-5" d="m1107.21,721.58c-52.21,34.32-64.71,57.92-43.71,80.92s48.95,47.57,74.47,49.28,25.53-19.28,38.53-34.28,8-29,59-18,87,21,141,13,64-22,51-61-63-67-84-62-87,2-123,10-90.59,7.15-113.29,22.08Z"/><path class="cls-5" d="m1566.18,688.92c-30.11,24.31-74.68,57.58-51.68,67.58s56.64,18,77.32,0,64.37-63.16,41.03-67.58-34.99-25.58-66.67,0Z"/><path class="cls-5" d="m2422.59,767.21c-4.06-52.18-.09-54.71,17.91-59.71s59.79.71,74.4,29.85-12.4,45.15,20.6,73.15,81.95,6.76,102.47,41.38,49.53,81.62,33.53,91.62-61.49,5-82.24,0-67.76,7-97.76-13-65.82-123.59-68.91-163.29Z"/><path class="cls-5" d="m189.26,721.86c-35.44-1.71-33.4,34.45-23.08,48.55s49.32,29.1,64.32,29.1,27.62,22.16,40.81,28.08,123.12-28.72,146.15-40.9,35.65-5.77,53.85-19.47,48.53,3.4,74.36,7.85,36.83,7.44,43.83-18.56,12.46-11.23-41.27-50.62-43.4-24.37-102.56-29.38-86.99,12.76-123.08,29.38-84.58,18.33-133.33,15.97Z"/><path class="cls-5" d="m2899.5,1017.5c-44.75-10.11-82-16-69,23s73,77,125,90,119,42,175,26,126,9,146-16,19-55.5,19.5-131.75-.5-164.74,0-180.49-38.5,43.25-63.5,89.25-20,110-56,118-64.94,35.72-114.47,25.86-131.53-36.86-162.53-43.86Z"/></g><g id="Big_Trees"><path class="cls-4" d="m2505,518c-18.65,1.1-33,33-13,46s9.33,20,53.67,23,49.21,10,30.77-34.5-37.44-36.5-71.44-34.5Z"/></g><g id="Fairway"><path class="cls-2" d="m57,637c3,31,1,49,13,57s25,7,49,3,27-7,43-7,35-3,56,4,9,7,42,3,15,0,24-2,19-4,24-10,5-18,4-33-3-50-10-61-15-21-26-21-26,3-42,6-21-5-30-8-41-9-60-7-29-2-51,3-22,10-29,18-7,20.87-7,33.44v21.56Z"/><path class="cls-2" d="m371,544c-13.61,16.33-11,33-10,59s3,45,18,52,39-2,50-5,48,1,64,3,45,9,73,12,33-4,46-16,9-31,8-53,5-44-10-58-23-9-36-8-49,3-64,1-17.19-3.37-30.09-2.68-64.91.68-77.91,1.68-21,2-31,14Z"/><path class="cls-2" d="m837,569c17.03,0,25,0,32,9s8,32,3,47-15,34-32,37-35-1-47-7-27-16-40-20-22,4-39-2-21.44-26.17-23.72-36.08,6.72-30.92,20.72-43.92,24-11,33-10,23,11,42,19,19,9,30,9,11-2,21-2Z"/><path class="cls-2" d="m1233.86,542.26c3.6,26.52,18.14,69.74,53.14,72.74s85,10,121,8,110-1,133-5,43.98-7.72,68.49-15.36,96.51-11.64,122.51-8.64,101,14,165,15,101-9,110-18,28-40,44-53,53-29,90-25,51,5,72,19,33,42,54,67,34,29,51,38,73.64,5,93.32,0,83.68,1,135.68,22,90,52,119,75,44,41,63,45,67,11,102,19,56,25,62,32,17,11,25,6,61-44,61-44l24-43s1-18-4-20-33-6-45-17-29-19-39-28-11-23-18-26-37-43-67-58-62-17-98-39-124-89-154-102-164-99-194-123-50-54-74-75-97-60-126-60-132,23-147,32-53,36-74,48-120,48-154,67-47,27-56,32-67,18-82,25-55,23-85,24-130-7-167-5-100,8-127,24-37,27-46,42-14.28,36.51-12.14,52.26Z"/></g><g id="Green"><path class="cls-6" d="m2913,782c-2.48,3.72-4,18.34,0,26.17s20,25.83,23,30.83,15,37,24,50,31,38,38,43,49,26,66,25,35-7,45-17,67-80,71-95,5-36.69,0-43.84-16-25.16-34-36.16-55-16-66-16-32,5-44,5-39.1-5-52.05-5-35.95,1-46.95,11-18,13-24,22Z"/></g><g id="Bunkers"><path class="cls-3" d="m2160,539c-9-2-24-6-35-5s-20,2-27,8-12,16-9,25,11,21,18,24,8,4,11,4,12-5,14-6,6-5,9-4,7.83,6,10.41,10,3.59,9,13.59,11,13.81,2,21.4,0,19.6-9,21.6-17,3-18-2-24-18-14-24-18-13-6-22-8Z"/></g></svg>