<?xml version="1.0" encoding="UTF-8"?><svg xmlns="http://www.w3.org/2000/svg" viewBox="0 0 3206 1322"><defs><style>.cls-1{fill:#006837;}.cls-2{fill:#e8d86b;}.cls-3{fill:#39b54a;}.cls-4{fill:#8cc63f;stroke:#329b3a;stroke-miterlimit:10;}</style></defs><g id="Bounds"><path class="cls-1" d="m303,267c49.45-8.9,208-17,315-5s207,4,277,8,315.3,1,385.15,0,123.18-26.33,177.52-13.16,79.33,28.16,108.33,51.16,77,70,100,70,55-40,78-44,118.29-5.95,168.14-18.47,206.86-66.53,279.86-86.53,105-20,134-28,70-12,118-28,70-43,110-51,81-14,120-16,79-21,105-20,64,13,98,67,50,75,74,101,33,22,59,62,65,104,71,171-25,197-68,307-45,236-45,277-71,70-140,110-123,66-262,61-351-28-448-55-105-31-119-47-60-116-88-150-57-81-146-101-168-16-216,15-105,84-127,122-28,53-57,71-24,20-62,25-231,8-357,7-243,9-305-8-249-98-294-136-160-154-163-196-11-226-10-287,79-226,129-235Z"/></g><g id="Fairway"><path class="cls-3" d="m613,380c-56.67,10.97-105,11-124,26s-28,44-23,65,49.64,40.27,72.82,50.13,46.18,28.87,114.18,47.87,94,32,119,16,33-69,35-105,4-72-15-89-29-23-60-22-88,5-119,11Z"/><path class="cls-3" d="m958,516c-4.25,19.54-3,47,17,63s62,40,83,57,42,51,73,54,87.3-12,104.15-29,35.85-35,31.85-62-27-61-50-75-145-94-163-95-56,4-64,16-27,48-32,71Z"/><path class="cls-3" d="m2004,476c-4.5,19.51,18,40,34,50s17,16,46,15,42-13,78-9,63,3,90,19,74,75,92,84,44,30,60,55,58,87,85,108,51,38,85,48,65.69,19,99.85,0,47.15-27,61.15-50,36-83,45-100,15-36,13-62-23-49-24-70-31-103-45-116-109-76-137-85-117-23-162-18-108,32-124,49-26,34-40,44-44,23-65,20-56-33-73-36-56-16-83,0-30,28-36,54Z"/></g><g id="Green"><path class="cls-4" d="m2280,492c-2.23,28.98,18,68,31,80s57,35,78,54,48,46,71,79,51,77,92,87,64.61,18,101.3,0,70.7-45,79.7-86,12-116-12-174-91-119-152-141-150-14-187-4-67,28-81,47-19,32-21,58Z"/></g><g id="Bunkers"><path class="cls-2" d="m2232,667c10.31,11.25,36-1,45-3s31-3,39,9,1,44-8,52-13,9-10,17,6,20,19,22,17-9,34-13,31-5,38,0,18,22,24,39,11,48,5,65-21,40-34,47-38,12-55,6-31-27-37-39-4-22-15-29-39-5-49-6-27-6-32-15-10-30-5-44,13-32,4-41-17,4-35-5-40-25-42-44-3-46,15-61,31-21,51-21,22,1,31,12,6,40,17,52Z"/></g></svg>