<?xml version="1.0" encoding="UTF-8"?><svg xmlns="http://www.w3.org/2000/svg" viewBox="0 0 3282 1120"><defs><style>.cls-1{fill:#006837;}.cls-2{fill:#e8d86b;}.cls-3{fill:#39b54a;}.cls-4{fill:#57b9ff;}.cls-5{fill:#8cc63f;stroke:#329b3a;stroke-miterlimit:10;}</style></defs><g id="Bounds"><path class="cls-1" d="m579,208c53.87,4.21,318,32,389,31s163-67,187-92,78-127,99-137,47.94-10,47.94-10h1430.16s134.9,13,161.9,21,95,87,119,110,52,67,83,89,72,57,110,79,74,58,68,79-8,37-26,44-57,27-77,46-45,49-68,62-114,47-153,65-85,57-99,81-25,38-46,54-65,33-87,39-63,27-83,44-79,102-98,131-51,73-86,89-90,28-132,33-197,2-237-11-146-57-184-75-102-30-105-44,7-103,7-103l-89-26-24,108s-39-7-61-24-131-94-162-110-244-68-273-72-176-38-201-47-157-56-187-63-302-63-331-70-230-50-257-57-94-15-103-41-34-51-9-87,35-80,78-79,210,38,240,25,94-87,158-82Z"/></g><g id="Water"><path class="cls-4" d="m1275.97,0s-81.97,102-93.97,124-29,44-16,72,10,36,48,50,269,51,353,57,299,18,363,26,86,17,110,42,47,83,54,114,29.96,65,67.98,75,72.02,6,89.02-20,51-111,82-126,138-53,162-83,72-89,82-117,3-73,27-111,26-43,50-59,55-19,63-27,0-17,0-17h-1441.03Z"/></g><g id="Fairway"><path class="cls-3" d="m145,362c-5.33,18.67-16,39-8,51s33,10,52,15,98,29,119,37,50,15,60,11,15-20,21-37,16-58,14-67-12-19-24-24-95.43-22.31-110.22-25.65-85.78-25.35-98.78-15.35-19,34-25,55Z"/><path class="cls-3" d="m444,436c-7.02,32.78-7,51.37,0,62.68s17,10.32,52,18.32,49,15,72,12,16-14,36-9,34.35,2.42,53.18,9.71,33.72,16.71,43.27,0,8.55-62.71,12.55-79.71,11-24-10-38-43.89-22.43-80.44-21.21-62.56-5.79-88.56-8.79-51.12-13-65.06,0-18.94,26-24.94,54Z"/><path class="cls-3" d="m920.06,477.16c-12.56,30.64-28.71,69.84-24.88,82.84s12.83,17,35.83,24,35.95,9,47.47,0,8.53-27,12.53-37,12-17,35-32,29.55-20.68,35.77-37.84,3.77-32.29,0-41.22-40.77-16.94-53.77-19.94-37-14-50-9-24.89,38.32-37.94,70.16Z"/><path class="cls-3" d="m1342,596c13.4,37.53,33,81,49,94s59,44,86,53,39,16,67,26,74.24,0,104.12,0,12.88-16,55.88-1,109,41,126,58,38,40,51,48,22,12,35,27,37,54,62,65,46,22,77,19,79-16,128-32,29-17,70-22,52-2,84-3,49-3,69-17,35-20,48-41,11-34,33-48,31-34,49-43,59-31,79-59,50-67,59-96,7-83,8-98,1-25,13-40,28-18,54-31,58-26,75-34-61-128-61-128c0,0-63,45-95,66s-76,46-104,61-51,35-61,47-48,32-69,53-69,78-86,98-58,51-86,59-71,12-108-7-42-26-58-39-32-46-52-57-27.24-6-48.62-14-23.38-31-61.38-38-83,11-110,10-109.51-14.26-147.76-34.13-108.24-62.87-146.24-75.87-114-9-147,16-48,52-48,90-3,40,7,68Z"/></g><g id="Green"><path class="cls-5" d="m2783,279c-17.17,14.8-38,25-48,56s-26,33-10,58,.21,24.24,25.61,32.12,39.39,2.88,71.39-5.12,25-17,53-14,39,8,71,10,47-3,61-18,20-34,18-52-13.19-45-37.6-67-24.4-33-52.4-43-52.97-10-84.99,0-38.01,18-67.01,43Z"/></g><g id="Bunkers"><path class="cls-2" d="m2759.5,238.5c-15,12-16,22-21,29s-16,11-28,6-19-12-17-25,13-11,15-18-3-12-4-19,0-14,5-21,12-7,22-3,3,4,12,3,1-4,8-9,15-7,27-2,18,4,20,13,5,17-4,24-18,8-25,13-5,5-10,9Z"/><path class="cls-2" d="m2896.5,156.5c-15.33-5.11-12-15-21-20s-20-4-27,7-3,22,2,28,11.24,14.16,20.12,15.58,16.46-3.42,36.17,0,19.71,7.42,35.71,7.42,21-4,22-13-8-24-25-28-14,11-32,7,1,0-11-4Z"/><path class="cls-2" d="m2795.5,522.5c-13.83,9.88-15,21-26,25s-23,2-37-8-11-21-10-31,3-20,12-28,19-7,29-5,5,6,15,4,10-8,26-9,20,1,36,6,22,14,21,20-6,22-16,24-27-1-38-2-5-1-12,4Z"/></g></svg>