<?xml version="1.0" encoding="UTF-8"?><svg xmlns="http://www.w3.org/2000/svg" viewBox="0 0 3194 1044.07"><defs><style>.cls-1{fill:#006837;}.cls-2{fill:#e8d86b;}.cls-3{fill:#663d18;}.cls-4{fill:#39b54a;}.cls-5{fill:#8cc63f;stroke:#329b3a;stroke-miterlimit:10;}</style></defs><g id="Bounds"><path class="cls-1" d="m104,445.15c20.38-38.84,132-141,310-168s684-55,815-69,277-27,397-51,278-25,305-39,98-69,205-83,90.68-12,224.34,0,227.66,7,312.66,73,248,201,365,259,156,68.63,156,124.32-19,173.68-41,197.68-125,197-144,212-55,59-85,66-120,46-171,51-336-43-417-36-551-10-634-3-249,18-327,3-190-95-261-110-140,6-215-3-156-4-234-26-463-33-502-69-77-113-86-170-5-98,27-159Z"/></g><g id="Fairway"><path class="cls-4" d="m102,575.15c-2.06-34,9-65,18-71s54-29,74-26,24,1,35,22,0,38.04,0,52.02,8,29.98,19,47.98,32,42,34,66-2,35-11,47-65,12-82,11-24-3-33-17-14-26-16-43-2-27-13-40-23-16-25-49Z"/><path class="cls-4" d="m411.82,521.15c2.94,18.9,5.18,42,11.18,52s26,27,35,40,10,37,25,45,29,15,53,12,27,2,42-5,24-17,25-28-2.73-27.29-7.36-41.15-16.64-43.85-25.64-49.85-18-24-20-40-5-42-13-46-42-12-71-6-46.36,8.24-54.18,20.62-2.18,32.38,0,46.38Z"/><path class="cls-4" d="m725,577.15c1.89,17.01,6,28,14,33s25,7,39,10,32,15,44,21,9,10,25,14,27.72,5,34.36,0,12.64-16,11.64-31-3-29-10-38-30.42-20.45-44.21-24.72-27.79-20.28-39.79-26.28-25-13-38-9-26,9-31,19-7,14-5,32Z"/><path class="cls-4" d="m1424,537.15c1.35,22.32,16,60,39,69s87,30,112,32,98,20,117,29,92,30,110,32,70-14,86-15,39-6,54-2,33.42,4.35,48.71,17.17,34.29,31.83,66.29,33.83,74,1,101-8,54-22,77-29,37-9,55-7,41,11,57,22,26,29,52,31,42-2,55-12,24-36,34-51,21-33,43-43,39-9,55-5,35,14,48,24,22,12,44,17,22,1,34,14,6,18,17,25,28,11,28,11l76-113s-60-33-81-41-44-6-69-17-49-21-56-33-6-28-16-45-14-36-26-45-123-78-151-89-77-21-101-26-42-17-68-16-74,6-110,20-79,36-107,49-88,30-115,32-79-5-100-7-38-7-69-9-89,17-118,20-84,8-114,16-67,28-81,48-29,38-27,71Z"/></g><g id="Bunkers"><path class="cls-2" d="m1920,701.15c10.96,1.37,35,3,43,7s17,10,22,16,9,15,6,20-11,10-16,11-11,3-15-2-4-8-8-7-8,10-13,12-14,3-19,0-14-13-16-14-8,2-12,1-11-5-12-13-1-15,4-21,28-11,36-10Z"/><path class="cls-2" d="m2578,703.15c-.45.18-.59.77-.9,1.14-2.84,3.48-6.1,6.54-6.1,12.86,0,7-1,11-3,12s-13,5-17,2-14-7-16-12-10-18-10-26-3-26,2-34,8-8,17-11,18.65-2,28.33,0,9.67,3,24.67,9,26,15,29,20,3,10.53,0,14.76-10,11.24-16,12.24-17-2-23-3-4,0-9,2Z"/><path class="cls-2" d="m2647,473.15c2.3,16.12,0,23,12,31s32,15,47,11,33-4,37-10,16.64-22,16.32-32-3.32-20-12.32-22-26,9-33,7-12-18-19-25-25-11-35-5-11,20.61-13,27.8-1,10.2,0,17.2Z"/><path class="cls-2" d="m2776,541.15c1.07-13.89,12-27,27-28s23.06-2.68,31.03,3.16,7.04,12.82,17,10.33,14.86-10.52,30.91-14.51,29.23-.98,38.64,9.02,14.41,17,9.41,31-13,24-26,28-22,2-32-3-20-15-29-15-24,2-30,5-10,7-19,4-19-17-18-30Z"/></g><g id="Green"><path class="cls-5" d="m2886,627.15c22.09,0,40-10,51-13s31-5,41,2,19,12,27,24,10,39,5,52-19,40-32,51-29,16-40,25-18,13-26,21-28,29-37,35-34,17-48,14-33-10-39-22-11.14-34.83-12.07-43.42,2.07-10.58-4.93-20.58-10-11.24-19.5-27.12-15.5-24.88-15.5-40.88,6-31,14-38,23-18,34-21,22-7,38-7,31,2,40,5,12,4,24,4Z"/></g><g id="Trees"><path class="cls-3" d="m312.5,307.65c69.5-42.22,290.5-65.5,363.5-59.5s295.58.85,391.29-.57,240.71-3.43,338.71-20.43,177-27,242-56,142-26,230-36,83-33,161-73S2182.27.15,2284.13.15s169.87-3,225.87,18,186.41,75.35,253.2,135.68,224.8,190.32,264.8,211.32,166,107.08,166,107.08v99.65c0,4.27-37,15.27-99-24.73s-199-102-270-148-177-131-223-163-145-103-224-101-165,46-257,65-144.91,69.25-223.96,88.12-282.04,33.88-389.04,41.88-324,72-366,83-196,33-301,28-193-3-270-5-128,15-182,32-52,41-115,14-15-142,38.5-174.5Z"/><path class="cls-3" d="m2884,976.15s-22-45-105-54-714-95-821-105-395-36-529-42-165-20-228-12-58,33-138,33-132-3-247-15-54-27-224-10-173-11-257,46-149,104-197,148,161,30,161,30c0,0,113.47-96.29,197.24-116.15s163.76-40.85,216.76-36.85,112.32,29.71,162.66,36.85,192.91.85,226.12,0,140.22,75.15,207.22,87.15,301,0,368,8,260.2,19.23,356.1,23.12,291.13,2.12,331.52,0,145.38,11.88,241.38,32.88,151.46,12,151.46,12c0,0,26.54-25,47.54-37s79-29,79-29Z"/></g></svg>