<?xml version="1.0" encoding="UTF-8"?><svg xmlns="http://www.w3.org/2000/svg" viewBox="0 0 3194 1436"><defs><style>.cls-1{fill:#006837;}.cls-2{fill:#e8d86b;}.cls-3{fill:#663d18;}.cls-4{fill:#a35211;}.cls-5{fill:#39b54a;}.cls-6{fill:#57b9ff;}.cls-7{fill:#8cc63f;stroke:#329b3a;stroke-miterlimit:10;}</style></defs><g id="Bounds"><path class="cls-1" d="m190,257c19.1-20.28,289,6,392,14s262,93,381,81,214-67,319-59,199,91,291,115,136-10,192-37,165-40,247-53,284-24,309-49,99-96,134-142,78-73,200-100,320.24-30,354.12,0,136.68,135.77,148.78,183.88-38.9,126.12-38.9,126.12l-71,12h0l16,129,72-9,7,861-778,78s-372.8,29-494.9,0-371.1-78-500.1-149-354-123-515-193-204-102-370-129-318-14-381-80-47-289-22-330,43-201,108-270Z"/></g><g id="Water"><path class="cls-6" d="m2931,664c-57.81,22.88-228,76-280,122s-56,31-83,63-59,168-71,244-33,152-24,215,36.12,128,36.12,128h684.88v-772s-48-22-114-34-101,15-149,34Z"/></g><g id="Fairway"><path class="cls-5" d="m263,446c28.15,5.28,43,4,50,15s5,25.71,0,40.36-17,46.64-27,55.64-38,28-46,48-20,44-16,63,1,23-6,31-17.79,5-31.4,0-24.6-12-38.6-9-22,6-38-6-20-30-12-51,18-60,28-75,9-16,24-29,22-35,28-50,6-33,19-40,30.88-5,43.94,0,6.06,4,22.06,7Z"/><path class="cls-5" d="m406,659c-5.42,19.89-7.75,33.88-3.37,44.94s5.37,17.06,22.37,24.06,31,9,49,9,29,6,41-7,10-20,14-38-1-30,12-41,29-19,43-27,11-4,27-20,26-37,27-51,2-29-19-36-56-17-70-20-17.87-5-26.44,0-17.56,27-21.56,42-2,31-12,37-28,5-46,18-28,29-30,40-4,14-7,25Z"/><path class="cls-5" d="m739,690c-6.85,17.12-6,29.94,0,39.97s15,11.03,27,13.03,30.05,3.76,37.52-4.62,13.48-23.38,15.48-34.38,18-20,27-30,25-25,29-39,7-24.82,0-34.91-18-15.09-33-18.09-24.59-6-34.79,0-19.26,22.34-22.24,34.17-9.97,23.83-19.97,33.83-17,15-20,24,0,1-6,16Z"/><path class="cls-5" d="m1294,806c9.19,31.25,8,48,22,69s55,61,72,76,27,25,68,35,93,18,128,27,56,14,74,14,36-1,62,4,88,22,111,34,64,36,96,48,32,17,57,19,155-22,169-34,31-52,40-72,42-70,58-81,81-20,102-33,35-45,45-69,45-82,73-103,42-45,65-58,31-14,51-32,27-46,49-66,45-47,79-59,31-24,29-38-62-117-88-121-31-14-44-6-22,52-41,62-102,23-127,41-39,54-51,73-55,71-79,88-69,40-92,40-52,5-77,26-72,64-90,84-43,45-65,51-61-3-87-16-31-40-43-52-83-41-116-52-100-31-128-29-73,8-99,2-79-30-99-29-80,15-94,32-35,39-37,58,2,50,7,67Z"/></g><g id="Bunkers"><path class="cls-2" d="m1889,757c-1.74,13.89,5,29,18,35s33.18,6,56.59,0,34.41-13,38.41-25,13-21.83,0-28.92-22-13.08-32-8.08-7,12-14,15-13-1-20-7-5.02-10.69-19.01-9.84-25.99,12.84-27.99,28.84Z"/><path class="cls-2" d="m2665,303c-16.56,13.55-31,26-43,26s-30-2-37-11-8-11-3-22,7-18,16-21,1-4,10-6,6.58,7,19.29,0,4.71-11,19.71-19,15.01-3,27.01,0,11.73.36,15.36-4.32,9.63-10.68,21.63-10.68,12,5,14,11,4,17-4,22-31,15-37,20-8,6-19,15Z"/><path class="cls-2" d="m2301,1138c-1.5,9.73-18,21-30,21s-38-13-49-41-13-38-7-62,21-49,34-67,31-42,45-48,27.61-5,37.31,0,18.69,15,19.69,27,0,25-12,30-22,7-25,13,9,13,14,19,10,12,6,20-14,12-19,14-11-2-19,3-15,15-17,22,9,18,14,23,10,13,8,26Z"/></g><g id="Green"><path class="cls-7" d="m2859,346c21.3,24.95,59,64,60,82s-7,43-26,56-52,25-82,19-38-20-63-23-36,21-58,18-50-17-62-37-16-41.69,0-63.35,38.36-38.65,58.68-51.65,32.32-36,51.32-44,28-16,47-11,39,14,74,55Z"/></g><g id="Trees"><path class="cls-3" d="m377.5,381.5c149.92,34.34,316,75,465,92s344.45,27.43,443.97,44.47,196.53,42.03,321.53,46.03,250.5,18.48,340.75-15.26,176.6-95.3,262.92-126.52,256.82-113.22,289.07-140.22-3.75-41,32.25-70,88-34,105-46,35.58-27.41,88.79-12.21,145.21,30.21,184.21,55.21,58,83,75,109,21,166,21,166l170.8,20.59V15.31s-530.49-4.69-535.14,0-187.07,73.57-291.36,111.13-257.29,105.56-351.29,129.56-150,71-257,118-151,74-248,33-168-96-295-101-268,28-382,2-313-78-377-70-284,93-63.5,143.5Z"/><path class="cls-3" d="m0,753.91s505,81.09,671,109.09,412,91,530,127,190,84,332,143,265,131,405,170,178,60,250,41,87-33,128-57,82-20,82-20l22.39,169h-663.37s-445.02-214-651.02-289-480-126-708-191-306-57-347-86S0,753.91,0,753.91Z"/></g><g id="Big_Trees"><path class="cls-4" d="m2340,1109c-18.24-3.65-26,10-18,29s18,42,31,31,29-16,21-39-24-19-34-21Z"/><path class="cls-4" d="m388,414c-10.37-1.22-23,11-11,23s22,27,28,17,15-23,9-30-9-8-26-10Z"/><path class="cls-4" d="m662,466c-10.5,4.2-19,18.56,0,23.78s26.04-3,28.02-11.89-13.02-17.89-28.02-11.89Z"/><path class="cls-4" d="m821,502c-16.44,8.22-22,12-14,23s13.72,7,23.86,0,28-14,16.07-23-11.93-7-25.93,0Z"/><path class="cls-4" d="m1050.16,531.83c11.8,1.27,27.84,5.17,28.84,13.17s-1.84,16.13-14.42,17.56-24.58-1.56-27.58-10.56,2.32-21.34,13.16-20.17Z"/></g></svg>