<?xml version="1.0" encoding="UTF-8"?><svg xmlns="http://www.w3.org/2000/svg" viewBox="0 0 3402 1492.98"><defs><style>.cls-1{fill:#006837;}.cls-2{fill:#e8d86b;}.cls-3{fill:#663d18;}.cls-4{fill:#39b54a;}.cls-5{fill:#8cc63f;stroke:#329b3a;stroke-miterlimit:10;}</style></defs><g id="Bounds"><path class="cls-1" d="m251,297.98c122.21-130.45,591-100,768-124s247-102,487-126S2221.58,6.98,2400.79,6.98s516.21-32,629.21,41,212,126,292,226,73,245,68,308-38,410-73,505-119,343-206,361-271,32-479,13-465-66-568-74-432-26-500-42-424-132-550-161-261-62-374-73-253,6-329,0-201-69-215-119-18-136.11,0-197.05,66-401.95,155-496.95Z"/></g><g id="Fairway"><path class="cls-4" d="m309,899.98c1.21,22.99,3,59-10,70s-32,28-52,34-46.95,10-59.97,0-38.03-33-40.03-59,4-74,11-99,15-63,18-85,3-40,22-56,32-29,58-27,58,10,68,26,23,40,16,60-25,58-30,83-2,34-1,53Z"/><path class="cls-4" d="m445,818.98c-1.67,41.74-17,67-17,91s1,53.08,17,66.54,46,24.46,66,25.46,45-8,52-17,5-32,10-57,15-59,22-77,19-37,20-53,1-50-9-68-28-40-45-46-44.22-8-59.61,0-37.39,34-43.39,55-12,55-13,80Z"/><path class="cls-4" d="m818,768.98c1.71,23.02,3,77,9,91s18,33,38,39,42,1,53-9,26.51-33.2,30.75-49.6,10.25-26.4,9.25-40.4-8-75-14-95-12-42-37-47-56,12-68,26-23,58-21,85Z"/><path class="cls-4" d="m1794,765.98c4.3,60.86,21,122,47,140s57,39,96,24,67.67-50.88,111.84-79.44,100.16-55.56,137.16-55.56,63,15,77,33,35,51,52,59,61,9,103,17,87,29,111,51,95,79,95,79l19-46,51-467-42-40s-168,73-220,80-131,0-177-18-106-40-137-39-116,23-141,28-45-2-61,2-70,48-83,76-45,71-39,156Z"/></g><g id="Trees"><path class="cls-3" d="m869,1044.98c63.12,1.11,228,21,317,37s244,64,368,60,253,1,353,10,211,57,286,39,74-58,132-36,77,75,164,111,89,73,160,67,92-53,201-69,133.54-52.87,173.77-98.43,112.86-150.78,124.54-204.67,29.69-225.89,17.69-294.89-48-218-81-270-111-75-83-105,75-51,142-47,178,38,194,83,46.11,184.77,55.06,224.38-19.06,395.62-32.06,440.62-69,228-144,308-142.77,179.29-181.88,181.14-743.12,3.86-753.12-.14-77-68-140-85-183-22-273-12-131,37-252,8-448-121-547-162-288-87-286-124,28-62,85-61Z"/><path class="cls-3" d="m3093,63.98c-77.53,45.51-137,112-239,128s-97,23-144-10-77-75-132-59-65.15,36.78-77.07,82.39-12.93,89.61-56.93,81.61-89-20-170-16-186-39-245-47-142-24-205,0-198,72-255,89-163-3-240,14-154.01,18.66-223.5,36.33-81.5,15.67-191.5,55.67-202,51-314,87-162,60-225,49-188.78,22.39-228.39-54.8-29.61-179.2,41.39-199.2,210-75,316-77,544-77,633-87,328-79,375-89,913-28,1036-25,464.88-10.67,515.44-.33,75.56,14.33,29.56,41.33Z"/></g><g id="Green"><path class="cls-5" d="m2626,766.98c-4.92,46.78-19,119-13,152s19,60,58,83,99,20,119,7,165-152,186-182,39.73-54,40.37-77-1.37-57-17.37-73-30-39-66-54-70-16-103-33-70-63-119-67-68,19-83,43-16,83-12,103,14,60,10,98Z"/></g><g id="Bunkers"><path class="cls-2" d="m2936.5,537.48c27.93,14.31,42,18,59,9s27-19,28-35-.5-24.5-9.5-36.5-19-9-20-21,9-38,5-51-14-32-37-38-51,5-63,20-15,23-23,23-26-21-41-22-30,7-36,22-11,52.69,0,63.35,29,30.65,43,30.65,26-4,41-1,33,26,53.5,36.5Z"/><path class="cls-2" d="m2792,1116.98c2.49,24.06,7,44,29,48s56-14,65-29,15-42,27-51,44-6,65-11,43-13,52-32,6-52-8-62-33-23-54-18-42.88,30.06-54.44,45.53-40.56,36.47-69.56,46.47-55,34-52,63Z"/><path class="cls-2" d="m2058,905.98c-11.21,26.16-13,67.57,0,83.79s33,47.21,61,45.21,37-3,49-17,23-26,16-39-12-15-19-29-5-22,2-25,39-3,49-6,35-17,38-33-5-33-20-42-42-26-67-20-54,22-72,35-28,26-37,47Z"/></g></svg>