<?xml version="1.0" encoding="UTF-8"?><svg xmlns="http://www.w3.org/2000/svg" viewBox="0 0 3426.72 1366.41"><defs><style>.cls-1{fill:#006837;}.cls-2{fill:#e8d86b;}.cls-3{fill:#a35211;}.cls-4{fill:#39b54a;}.cls-5{fill:#57b9ff;}.cls-6{fill:#8cc63f;stroke:#329b3a;stroke-miterlimit:10;}</style></defs><g id="Bounds"><path class="cls-1" d="m199.34,996c158.54,4.9,327-28,508,14s269,52,445,89,259,60,415,63,250.37-5,305.68,0,110.53,204,110.53,204h839.47s82.32-49,108.32-41,142,22,197,19,113-21,113-21c0,0,129-277,137-295s48-150.42,48-163.21,4-392.79-14-426.79,13-127-87-171-339-126-426-160-279-47-350-50-245,92-316,108-250,65-329,81-302,38-397,40-330,54-440,102-312,142-381,174-224,69-332,69-215-24-276,13S-11.66,741.95,4.34,788.47s56,135.53,74,178.53,24,26,121,29Z"/></g><g id="Water"><path class="cls-5" d="m1983.22,1366l-79.87-276s-11-60-7-80,40-182,60-199,78-58,110-77,51.1-41,81.55-51,71.45-17,139.45-13,45,12,83,4,112-31,139-42,106-44,133-34,21,20,28,34-5,10,29,24,150,69,171,75,49,18,53,29,15,58,16,96-33,237-45,281-60,190-65,201-14.72,28-14.72,28h-831.41Z"/></g><g id="Fairway"><path class="cls-4" d="m54.34,732c-1.3,16.95-6,36,4,51s23,21,44,20,27-6,46-2,40,14,59,19,56,7,72,3,28-8,33-16-1-51-3-64-3-21-17-30-27-15-45-15-41.84,4-63.92,0-29.08-14-50.08-18-58.19-5-67.1,3-10.9,36-11.9,49Z"/><path class="cls-4" d="m379.34,761c-1.42,9.95,3,22,13,31s25,13,37,14,17-4,31,3,25.58,13.26,45.29,16.13,28.71,3.87,34.71-2.13,9-25,8-36-1-33-10-39-23-1-34-4-31-8-42-14-28-15-41-13-29,7-33,17-7,13-9,27Z"/><path class="cls-4" d="m892.34,783c20.68,17.24,45,21,80,24s123,12,149,18,51,10,66,13,49,1,71-2,47,3,66-1,38-27,54-39,43-31,68-37,82-8,99-5,47,15,67,33,39,38,59,47,24,20,54,16,49-14,58-29,14-55,27-74,65-71,104-91,135-62,166-74,157-48,196-51,128.36,4,155.18,0,94.82-27,115.82-33,65-22,86-22,136,32,170,49,101,55,115,71,54,59,73,73,78,30,94,41,25,19,29,33,9,55,6,61-14,6-15,12-2,17-2,17l84.28,17.85s6.72-8.85,4.72-14.85-16-25-16-30,2-38,8-52,28-38,33-53,6-36,3-49-25-65-42-75-38-19-48-20-20-3-30-11-27-41-34-49-41-32-52-40-17-10-21-20-6-22-14-35-64-56-92-60-119-8-144-5-70,17-89,18-103.89-14.09-130.95-19.05-56.05-11.95-72.05-14.95-28-15-43-14-94-6-132-4-143,21-169,22-70,17-97,27-52,21-56,27-22,65-32,75-41,36-61,43-66,9-93,3-54-9-67-15-61,5-79,5-126-9-150-6-130,21-153,33-56,37-78,42-90,17-111,22-149,22-168,31-66,44-80,61-22,41-18,61,16,39,28,49Z"/></g><g id="Bunkers"><path class="cls-2" d="m1474.34,804c24.05-2.53,37.39-3,60.7,0s27.3,12,29.3,19,0,26-9,33-21,12-31,8-13-14-26-11-13,17.34-24,18.67-36-19.67-50-16.67,1,11-10,9-18-8-20-20-3-20,16-30,45-8,64-10Z"/><path class="cls-2" d="m1856.34,463c-15.7,10.47-56,29-63,31s-10,2-16-2-13-19-10-26,12-21,17-23,9.67-3,15.83,0,9.17,6,15.17,3,23-22,28-29,12-12,23-9,18,7,19,15-10.08,24.43-13.54,28.21-9.46,7.79-15.46,11.79Z"/><path class="cls-2" d="m3067.34,743c1.78,8.88,3,17-3,22s-14,8-26,2-22-17-21-26,4-18,10-20,17-5,23-1,11,10,13,13,3,5,4,10Z"/><path class="cls-2" d="m3244.34,775c0,8.06-2,15,3,20s10,7,27,10,19,1,23,5,9,4,8,15-2,25-7,28-20,3-27-1-15-9-21-15-10-11-14-13-15-6-23-10-16-9-18-15-4-26.49,0-33.74,10-20.26,18-22.26,21-1,24,6,7,16,7,26Z"/><path class="cls-2" d="m3078.34,1114c9.34,3.11,24,9,33,11s12,3,17,7,7,15,5,20-10,13-15,16-5,6-9,3-9-11-12-16-5-9-11-10-9,8-18,4-3-15-15-22-15-4-20-10-7-12-5-18,3-9,9-11,4-3,9-2,15,11,18,14,8,12,14,14Z"/><path class="cls-2" d="m3085.34,506c2.11,10.56,10,22,17,28s20,15,35,11,25-10,31-20,12-27,4-36-14-15-21-15-16,6-23,7-10,1-14-5-1-11-9-12-9,1-15,6-8,17-8,22,2,9,3,14Z"/></g><g id="Big_Trees"><path class="cls-3" d="m3337.34,605c-8.64,5.04-24,19-18,32s16,24,29,21,31-10,30-20-8.52-29-17.26-33-11.74-7-23.74,0Z"/></g><g id="Trees"><path class="cls-3" d="m162.84,840.5c84.03,3.31,204-1,273,5s155.5,27.5,230.5,37.5,169,7,227,18,163,13,229,21,129,18,214,14,182,17,265,10,174-20,196-17,22,55,21,83,7,106-10,116-49-38-49-38l-10.01-105.06-123.99,13.06s-7,94-2,97-58,59-140,66-170-11-243-41-199.48-80.2-249.24-81.1-67.82,22.53-127.79,48.32-62.97,89.78-113.97,84.78-40-63-96-94-139.07-78.04-189.54-89.52-156.46,9.52-192.46,41.52-15,62-68,41-113-77-124-128,20-105,83.5-102.5Z"/><path class="cls-3" d="m3009.34,1227c29.99,5.71,15,40.57,71.5,49.29s100.5-3.29,121.5-9.29,41,5,39,36-22.62,49.53-48.31,56.27-88.36,6.73-124.03,6.73-50.66,6-76.66-28-36-77-25-92,21-23,42-19Z"/></g><g id="Green"><path class="cls-6" d="m3274.34,944c0,20.22-15,44-25,55s-34,35-47,50-34,33-54,36-33,3-52-10-24-27-27-47,15-49,18-65,6-29,4-50-7-30,1-56,12-32,30-35,23-5,37,2,25,25,36,32,39,15,52,28,21,23,24,35,3,12,3,25Z"/></g></svg>